<mxfile host="app.diagrams.net" modified="2024-02-19T15:42:08.005Z" agent="Mozilla/5.0 (Windows NT 10.0; Win64; x64) AppleWebKit/537.36 (KHTML, like Gecko) Chrome/116.0.0.0 Safari/537.36 OPR/102.0.0.0" version="23.1.5" etag="mad4IA4uI2yowKTtAr_p" type="github">
  <diagram name="PÃ¡gina-1" id="E0T26WtHQmeHysrm4aXM">
    <mxGraphModel>
      <root>
        <mxCell id="0" />
        <mxCell id="1" parent="0" />
      </root>
    </mxGraphModel>
  </diagram>
</mxfile>
